HIERARCHY
ROOT Hips
{
	OFFSET 0.000000 71.427986 0.000000
	CHANNELS 6 Xposition Yposition Zposition Xrotation Yrotation Zrotation
	JOINT Pelvis
	{
		OFFSET 0.000000 0.000000 0.000000
		CHANNELS 3 Xrotation Yrotation Zrotation
		JOINT LeftUpLeg
		{
			OFFSET 6.797100 -2.508499 -1.318700
			CHANNELS 3 Xrotation Yrotation Zrotation
			JOINT LeftLeg
			{
				OFFSET 0.069008 -29.241863 0.690200
				CHANNELS 3 Xrotation Yrotation Zrotation
				JOINT LeftFoot
				{
					OFFSET -0.069008 -29.568123 -0.266800
					CHANNELS 3 Xrotation Yrotation Zrotation
					JOINT LeftToeBase
					{
						OFFSET 3.145500 -8.631000 16.059900
						CHANNELS 3 Xrotation Yrotation Zrotation
						End Site
						{
							OFFSET 0.000000 18.501587 0.000000
						}
					}
				}
			}
			JOINT Left_ShortSleeve
			{
				OFFSET 0.265923 -10.480953 1.153800
				CHANNELS 3 Xrotation Yrotation Zrotation
				End Site
				{
					OFFSET 1.725763 19.823879 0.000000
				}
			}
		}
		JOINT RightUpLeg
		{
			OFFSET -6.797100 -2.508499 -1.318700
			CHANNELS 3 Xrotation Yrotation Zrotation
			JOINT RightLeg
			{
				OFFSET -0.082453 -29.241932 0.688000
				CHANNELS 3 Xrotation Yrotation Zrotation
				JOINT RightFoot
				{
					OFFSET 0.082453 -29.568058 -0.264600
					CHANNELS 3 Xrotation Yrotation Zrotation
					JOINT RightToeBase
					{
						OFFSET -3.115300 -8.682800 16.113400
						CHANNELS 3 Xrotation Yrotation Zrotation
						End Site
						{
							OFFSET 0.000000 18.567114 0.000000
						}
					}
				}
			}
			JOINT Right_ShortSleeve
			{
				OFFSET -0.265923 -10.480953 1.153800
				CHANNELS 3 Xrotation Yrotation Zrotation
				End Site
				{
					OFFSET -1.725766 19.823910 0.000000
				}
			}
		}
	}
	JOINT Spine
	{
		OFFSET 0.000000 13.368103 0.470500
		CHANNELS 3 Xrotation Yrotation Zrotation
		JOINT Spine1
		{
			OFFSET 0.147000 13.837402 0.538800
			CHANNELS 3 Xrotation Yrotation Zrotation
			JOINT Spine2
			{
				OFFSET 0.168000 16.242897 -1.435500
				CHANNELS 3 Xrotation Yrotation Zrotation
				JOINT Neck
				{
					OFFSET 0.217200 18.631500 -1.679100
					CHANNELS 3 Xrotation Yrotation Zrotation
					JOINT Head
					{
						OFFSET 0.000000 6.599396 1.385900
						CHANNELS 3 Xrotation Yrotation Zrotation
						JOINT Hat
						{
							OFFSET -0.532200 27.220596 -10.096100
							CHANNELS 3 Xrotation Yrotation Zrotation
							End Site
							{
								OFFSET 0.000000 22.029861 0.000000
							}
						}
						JOINT HairD
						{
							OFFSET -10.777400 17.437393 -1.325900
							CHANNELS 3 Xrotation Yrotation Zrotation
							JOINT HairD1
							{
								OFFSET -3.290299 -11.051193 1.062200
								CHANNELS 3 Xrotation Yrotation Zrotation
								End Site
								{
									OFFSET 0.000000 11.579437 0.000000
								}
							}
						}
						JOINT HairB
						{
							OFFSET -10.777400 17.437393 1.467900
							CHANNELS 3 Xrotation Yrotation Zrotation
							JOINT HairB1
							{
								OFFSET -1.561200 -12.956299 3.590200
								CHANNELS 3 Xrotation Yrotation Zrotation
								End Site
								{
									OFFSET 0.000000 13.534866 0.000000
								}
							}
						}
						JOINT HairA
						{
							OFFSET 9.713100 17.437393 1.467900
							CHANNELS 3 Xrotation Yrotation Zrotation
							JOINT HairA1
							{
								OFFSET 1.561200 -12.956299 3.590200
								CHANNELS 3 Xrotation Yrotation Zrotation
								End Site
								{
									OFFSET 0.000000 13.534866 0.000000
								}
							}
						}
						JOINT HairC
						{
							OFFSET 9.713100 17.437393 -1.325900
							CHANNELS 3 Xrotation Yrotation Zrotation
							JOINT HairC1
							{
								OFFSET 3.290300 -11.051193 1.062200
								CHANNELS 3 Xrotation Yrotation Zrotation
								End Site
								{
									OFFSET 0.000000 11.579437 0.000000
								}
							}
						}
					}
				}
				JOINT LeftShoulder
				{
					OFFSET 5.101800 15.108002 -2.763700
					CHANNELS 3 Xrotation Yrotation Zrotation
					JOINT LeftArm
					{
						OFFSET 9.825497 2.506317 -1.597400
						CHANNELS 3 Xrotation Yrotation Zrotation
						JOINT LeftForeArm
						{
							OFFSET 21.966244 0.000000 0.000000
							CHANNELS 3 Xrotation Yrotation Zrotation
							JOINT LeftHand
							{
								OFFSET 33.879036 0.000000 0.000000
								CHANNELS 3 Xrotation Yrotation Zrotation
								JOINT LeftHandThumb1
								{
									OFFSET 6.715286 -2.359680 3.363841
									CHANNELS 3 Xrotation Yrotation Zrotation
									JOINT LeftHandThumb2
									{
										OFFSET 2.507072 -1.447464 1.447461
										CHANNELS 3 Xrotation Yrotation Zrotation
										JOINT LeftHandThumb3
										{
											OFFSET 2.898338 -1.673355 1.673357
											CHANNELS 3 Xrotation Yrotation Zrotation
											End Site
											{
												OFFSET -0.295959 3.727692 -0.131651
											}
										}
									}
								}
								JOINT LeftHandIndex1
								{
									OFFSET 14.190811 -0.254547 3.840278
									CHANNELS 3 Xrotation Yrotation Zrotation
									JOINT LeftHandIndex2
									{
										OFFSET 3.551727 0.000000 -0.000000
										CHANNELS 3 Xrotation Yrotation Zrotation
										JOINT LeftHandIndex3
										{
											OFFSET 2.894196 0.000000 0.000000
											CHANNELS 3 Xrotation Yrotation Zrotation
											End Site
											{
												OFFSET -1.000603 2.690872 0.366626
											}
										}
									}
								}
								JOINT LeftHandMiddle1
								{
									OFFSET 13.776489 0.000000 0.000000
									CHANNELS 3 Xrotation Yrotation Zrotation
									JOINT LeftHandMiddle2
									{
										OFFSET 3.438232 0.000000 0.000000
										CHANNELS 3 Xrotation Yrotation Zrotation
										JOINT LeftHandMiddle3
										{
											OFFSET 3.691551 0.000000 0.000000
											CHANNELS 3 Xrotation Yrotation Zrotation
											End Site
											{
												OFFSET -1.082298 3.499527 0.457670
											}
										}
									}
								}
								JOINT LeftHandRing1
								{
									OFFSET 13.966164 -0.268127 -3.067488
									CHANNELS 3 Xrotation Yrotation Zrotation
									JOINT LeftHandRing2
									{
										OFFSET 3.162567 0.000000 0.000000
										CHANNELS 3 Xrotation Yrotation Zrotation
										JOINT LeftHandRing3
										{
											OFFSET 3.324348 0.000000 0.000000
											CHANNELS 3 Xrotation Yrotation Zrotation
											End Site
											{
												OFFSET -0.861900 3.184998 0.405154
											}
										}
									}
								}
								JOINT LeftHandPinky1
								{
									OFFSET 13.131393 -0.168503 -5.746925
									CHANNELS 3 Xrotation Yrotation Zrotation
									JOINT LeftHandPinky2
									{
										OFFSET 2.849182 0.000000 0.000000
										CHANNELS 3 Xrotation Yrotation Zrotation
										JOINT LeftHandPinky3
										{
											OFFSET 2.805038 0.000000 0.000000
											CHANNELS 3 Xrotation Yrotation Zrotation
											End Site
											{
												OFFSET -0.882500 2.642609 0.325652
											}
										}
									}
								}
							}
							JOINT Left_Sleeve
							{
								OFFSET 6.592125 -0.646545 0.805568
								CHANNELS 3 Xrotation Yrotation Zrotation
								End Site
								{
									OFFSET -0.000179 20.275787 -0.000000
								}
							}
						}
					}
				}
				JOINT RightShoulder
				{
					OFFSET -5.731700 15.108002 -2.763700
					CHANNELS 3 Xrotation Yrotation Zrotation
					JOINT RightArm
					{
						OFFSET -9.825497 2.506317 -1.597400
						CHANNELS 3 Xrotation Yrotation Zrotation
						JOINT RightForeArm
						{
							OFFSET -21.966242 0.000000 0.000000
							CHANNELS 3 Xrotation Yrotation Zrotation
							JOINT RightHand
							{
								OFFSET -33.879032 0.000000 0.000000
								CHANNELS 3 Xrotation Yrotation Zrotation
								JOINT RightHandThumb1
								{
									OFFSET -6.715286 -2.359680 3.363841
									CHANNELS 3 Xrotation Yrotation Zrotation
									JOINT RightHandThumb2
									{
										OFFSET -2.507072 -1.447464 1.447461
										CHANNELS 3 Xrotation Yrotation Zrotation
										JOINT RightHandThumb3
										{
											OFFSET -2.898338 -1.673355 1.673357
											CHANNELS 3 Xrotation Yrotation Zrotation
											End Site
											{
												OFFSET 0.295959 3.727692 -0.131651
											}
										}
									}
								}
								JOINT RightHandIndex1
								{
									OFFSET -14.190811 -0.254547 3.840278
									CHANNELS 3 Xrotation Yrotation Zrotation
									JOINT RightHandIndex2
									{
										OFFSET -3.551727 0.000000 -0.000000
										CHANNELS 3 Xrotation Yrotation Zrotation
										JOINT RightHandIndex3
										{
											OFFSET -2.894196 0.000000 0.000000
											CHANNELS 3 Xrotation Yrotation Zrotation
											End Site
											{
												OFFSET 1.000603 2.690872 0.366626
											}
										}
									}
								}
								JOINT RightHandMiddle1
								{
									OFFSET -13.776489 0.000000 0.000000
									CHANNELS 3 Xrotation Yrotation Zrotation
									JOINT RightHandMiddle2
									{
										OFFSET -3.438232 0.000000 0.000000
										CHANNELS 3 Xrotation Yrotation Zrotation
										JOINT RightHandMiddle3
										{
											OFFSET -3.691551 0.000000 0.000000
											CHANNELS 3 Xrotation Yrotation Zrotation
											End Site
											{
												OFFSET 1.082298 3.499527 0.457670
											}
										}
									}
								}
								JOINT RightHandRing1
								{
									OFFSET -13.966164 -0.268127 -3.067488
									CHANNELS 3 Xrotation Yrotation Zrotation
									JOINT RightHandRing2
									{
										OFFSET -3.162567 0.000000 0.000000
										CHANNELS 3 Xrotation Yrotation Zrotation
										JOINT RightHandRing3
										{
											OFFSET -3.324348 0.000000 0.000000
											CHANNELS 3 Xrotation Yrotation Zrotation
											End Site
											{
												OFFSET 0.861900 3.184998 0.405154
											}
										}
									}
								}
								JOINT RightHandPinky1
								{
									OFFSET -13.131393 -0.168503 -5.746925
									CHANNELS 3 Xrotation Yrotation Zrotation
									JOINT RightHandPinky2
									{
										OFFSET -2.849182 0.000000 0.000000
										CHANNELS 3 Xrotation Yrotation Zrotation
										JOINT RightHandPinky3
										{
											OFFSET -2.805038 0.000000 0.000000
											CHANNELS 3 Xrotation Yrotation Zrotation
											End Site
											{
												OFFSET 0.882500 2.642609 0.325652
											}
										}
									}
								}
							}
							JOINT Right_Sleeve
							{
								OFFSET -6.592125 -0.646545 0.805568
								CHANNELS 3 Xrotation Yrotation Zrotation
								End Site
								{
									OFFSET 0.000179 20.275787 -0.000000
								}
							}
						}
					}
				}
				JOINT Bind_Right_JacketString
				{
					OFFSET -3.534800 11.969597 7.200700
					CHANNELS 3 Xrotation Yrotation Zrotation
					JOINT Bind_Right_JacketString1
					{
						OFFSET -0.319900 -6.102600 2.794100
						CHANNELS 3 Xrotation Yrotation Zrotation
						End Site
						{
							OFFSET 0.000000 6.719452 0.000000
						}
					}
				}
				JOINT Bind_Left_JacketString
				{
					OFFSET 2.904800 11.969597 7.200700
					CHANNELS 3 Xrotation Yrotation Zrotation
					JOINT Bind_Left_JacketString1
					{
						OFFSET 0.364800 -5.904503 3.186800
						CHANNELS 3 Xrotation Yrotation Zrotation
						End Site
						{
							OFFSET 0.000000 6.719513 0.000000
						}
					}
				}
				JOINT HairE
				{
					OFFSET 5.915200 17.612701 -11.592200
					CHANNELS 3 Xrotation Yrotation Zrotation
					JOINT HairE1
					{
						OFFSET 0.289200 -7.171898 -1.284500
						CHANNELS 3 Xrotation Yrotation Zrotation
						End Site
						{
							OFFSET 0.000000 7.291756 0.000000
						}
					}
				}
				JOINT HairF
				{
					OFFSET -0.864800 17.612701 -11.592200
					CHANNELS 3 Xrotation Yrotation Zrotation
					JOINT HairF1
					{
						OFFSET 0.000000 -14.087097 -2.127501
						CHANNELS 3 Xrotation Yrotation Zrotation
						End Site
						{
							OFFSET 0.000000 14.246841 0.000000
						}
					}
				}
				JOINT HairG
				{
					OFFSET -8.087700 17.612701 -11.592200
					CHANNELS 3 Xrotation Yrotation Zrotation
					JOINT HairG1
					{
						OFFSET -0.293600 -6.081398 -0.910100
						CHANNELS 3 Xrotation Yrotation Zrotation
						End Site
						{
							OFFSET 0.000000 6.156120 0.000000
						}
					}
				}
			}
		}
	}
	JOINT Pouch
	{
		OFFSET 0.000000 4.394501 10.847300
		CHANNELS 3 Xrotation Yrotation Zrotation
		End Site
		{
			OFFSET 0.000000 21.880577 0.000000
		}
	}
	JOINT Bag
	{
		OFFSET -13.229000 4.813004 -0.593300
		CHANNELS 3 Xrotation Yrotation Zrotation
		End Site
		{
			OFFSET 0.000000 21.880577 0.000000
		}
	}
	JOINT OccupyGuyFacialAnim_Joint
	{
		OFFSET 1.000000 -70.206398 -1.655000
		CHANNELS 3 Xrotation Yrotation Zrotation
		End Site
		{
			OFFSET 0.000000 21.880577 0.000000
		}
	}
}
MOTION
Frames: 4
Frame Time: 0.033333
65.565948 57.228767 260.896790 27.066380 19.542739 -5.398665 0.000000 0.000000 -0.000001 -39.603038 1.504134 5.159499 87.147019 13.993819 4.019329 -7.480182 0.915493 -7.937563 -0.000001 -0.000002 -0.000003 -0.000000 -0.000000 -0.000000 -77.330528 4.862853 -13.551806 23.610250 7.845920 0.206238 4.602590 2.875520 14.017721 0.000001 0.000001 0.000000 -0.000004 0.000000 -0.000000 13.704649 -1.149670 4.881610 7.602989 0.050772 2.940102 7.585013 -0.116502 2.998828 12.455914 -2.251028 5.530931 -18.752776 -13.947545 4.637758 0.000001 0.000000 -0.000001 0.000001 0.000000 -0.000001 0.000001 0.000000 -0.000000 0.000001 0.000000 -0.000001 0.000003 0.000000 0.000000 0.000001 0.000000 -0.000001 0.000003 0.000000 0.000000 0.000001 0.000000 -0.000001 0.000001 0.000000 -0.000001 1.750315 -12.183601 5.360953 -32.713809 -24.256913 -16.272388 -0.000000 -48.494302 -0.000013 15.004102 -3.246061 -1.654927 -1.088817 3.415042 -7.921832 9.796281 17.862954 8.215416 0.000002 -0.000001 -0.000001 -3.313657 -1.722207 -37.463103 1.335153 3.724282 -39.434497 0.000001 0.000000 -0.000002 0.990038 5.518720 -32.935131 1.470018 3.882137 -41.467547 -0.000001 -0.000001 -0.000001 3.565768 9.618841 -31.972348 1.438135 3.845810 -40.994164 -0.000001 0.000002 0.000000 3.838500 17.603923 -21.843481 1.238397 3.603681 -37.920524 -0.000000 0.000001 0.000001 -0.000000 0.000000 0.000002 -1.935243 15.439597 33.189020 -27.910071 6.384460 11.839783 -0.000004 8.005402 0.000010 -0.563289 12.789143 9.338439 -0.527327 -3.330196 1.776504 6.829694 -18.361924 -2.434634 0.000002 -0.000001 0.000000 0.666460 12.779047 57.635896 2.510360 -4.133797 62.524597 -0.000000 0.000001 0.000000 2.222769 -6.217575 57.065670 1.291250 -3.220525 43.687205 -0.000000 0.000000 -0.000001 7.047243 -9.325834 57.080738 1.952062 -3.792396 54.459772 0.000000 0.000001 -0.000002 4.633006 -22.815299 73.017208 1.769372 -3.655295 51.647534 -0.000000 0.000003 0.000001 -0.000001 0.000000 0.000001 -0.000001 -0.000001 0.000001 -0.000003 -0.000001 0.000001 -0.000001 -0.000001 0.000001 -0.000001 -0.000001 0.000001 -0.000001 -0.000001 0.000001 -0.000003 -0.000001 0.000001 -0.000001 -0.000001 0.000001 -0.000001 -0.000001 0.000001 -0.000001 -0.000001 0.000001 -0.000003 -0.000001 0.000001 0.000000 0.000000 -0.000001 0.000000 0.000000 -0.000001 0.000000 0.000000 -0.000001 
66.725540 56.364441 266.949127 21.212049 15.227569 -3.578116 0.000000 -0.000001 0.000000 -32.131477 2.914747 3.384033 86.216815 2.662031 3.367798 1.723463 0.095065 -2.942062 0.000001 0.000001 -0.000002 0.000001 0.000001 -0.000000 -75.941089 2.940679 -11.356938 33.146239 9.043234 4.017049 11.610470 11.853259 8.407737 -0.000000 -0.000000 0.000000 0.000004 0.000001 -0.000000 13.434139 -0.773712 5.095515 7.770489 -0.595037 3.394033 7.743330 -0.696755 3.447507 11.269760 -2.162668 4.980487 -18.492454 -11.593991 2.538433 -0.000000 0.000001 -0.000001 -0.000000 0.000001 -0.000001 -0.000000 0.000001 -0.000001 -0.000000 0.000001 -0.000001 -0.000000 0.000000 -0.000000 -0.000000 0.000001 -0.000001 -0.000000 0.000000 -0.000000 -0.000000 0.000001 -0.000001 -0.000000 0.000001 -0.000001 1.646785 -13.061439 2.781282 -38.546777 -29.624289 -29.122783 -0.000017 -39.148387 -0.000010 17.273081 -8.198613 -0.856384 -1.160486 2.631782 -8.420585 8.717480 18.747925 5.807567 -0.000002 0.000003 -0.000001 -3.801326 -6.363406 -24.982790 0.864900 3.065417 -31.505873 0.000000 0.000000 0.000002 0.461395 4.480918 -21.391994 0.921466 3.155725 -32.548365 -0.000000 0.000001 -0.000003 2.781195 10.594540 -20.531776 0.729866 2.833694 -28.882333 -0.000000 -0.000000 -0.000000 1.308345 18.913079 -7.744408 0.722736 2.820732 -28.737492 0.000001 0.000001 -0.000000 -0.000001 0.000000 0.000002 -1.709137 15.071881 31.804810 -27.413142 7.048567 11.864926 -0.000003 8.020518 -0.000001 -1.396560 10.959583 15.629814 -0.527328 -3.330217 1.776462 6.829696 -18.361922 -2.434626 -0.000001 0.000000 0.000000 0.666466 12.779050 57.635902 2.510358 -4.133805 62.524590 0.000000 0.000001 -0.000001 2.222764 -6.217592 57.065647 1.291244 -3.220506 43.687205 -0.000002 -0.000001 -0.000003 7.047230 -9.325843 57.080721 1.952048 -3.792398 54.459759 -0.000001 0.000001 -0.000001 4.632986 -22.815321 73.017195 1.769381 -3.655300 51.647544 0.000003 0.000003 -0.000003 0.000003 -0.000001 -0.000004 -0.000001 0.000000 -0.000000 -0.000001 -0.000000 -0.000000 -0.000001 0.000000 -0.000001 -0.000001 0.000000 -0.000001 -0.000001 0.000000 -0.000000 -0.000001 -0.000000 -0.000000 -0.000001 0.000000 -0.000001 -0.000001 0.000000 -0.000001 -0.000001 0.000000 -0.000000 -0.000001 -0.000000 -0.000000 0.000000 -0.000001 0.000000 0.000000 -0.000001 0.000000 0.000000 -0.000001 0.000000 
67.797379 56.450462 271.985626 17.423445 10.796080 -3.428362 -0.000003 -0.000000 -0.000000 -32.680345 3.880360 2.572648 91.732972 -2.799271 1.736501 3.005166 0.040064 -2.568554 -0.000000 0.000000 -0.000000 -0.000002 0.000001 0.000000 -75.783954 1.013830 -8.719660 46.235938 9.737428 6.163707 12.218417 12.691550 0.297685 0.000000 -0.000001 0.000000 -0.000002 0.000000 0.000000 13.606517 -0.231902 5.913837 8.157891 -0.925206 3.825125 8.134856 -0.996948 3.865050 9.079995 -2.132977 4.883817 -19.826928 -10.084401 1.682261 -0.000000 -0.000001 -0.000000 -0.000000 -0.000001 -0.000000 -0.000000 -0.000001 0.000000 -0.000000 -0.000001 0.000000 -0.000000 -0.000000 -0.000000 -0.000000 -0.000001 0.000000 -0.000000 -0.000000 -0.000000 -0.000000 -0.000001 -0.000000 -0.000000 -0.000001 -0.000000 1.661674 -16.885020 -0.661483 -47.586536 -29.532427 -41.414555 -0.000005 -30.750321 -0.000018 18.678887 -13.665429 2.719219 -1.229990 1.896219 -8.887878 7.711512 19.676528 3.577226 -0.000001 0.000001 0.000002 -2.747695 -10.982297 -13.235460 0.510491 2.393681 -24.074141 0.000001 0.000000 -0.000002 0.162359 3.430061 -10.581504 0.515326 2.404482 -24.189675 0.000002 -0.000000 -0.000001 1.584138 11.435455 -9.729357 0.272798 1.768538 -17.535835 -0.000001 -0.000001 -0.000001 -1.836691 19.751521 5.640782 0.358585 2.019959 -20.131052 -0.000001 0.000001 -0.000001 0.000001 0.000000 -0.000001 -1.866248 15.912871 31.703583 -26.911476 11.829568 9.066298 0.000004 6.389925 0.000013 -1.532783 9.045718 17.529880 -0.527332 -3.330209 1.776479 6.829675 -18.361920 -2.434651 0.000000 0.000000 0.000002 0.666462 12.779041 57.635889 2.510365 -4.133795 62.524604 0.000001 -0.000000 -0.000003 2.222756 -6.217586 57.065660 1.291245 -3.220520 43.687205 0.000001 -0.000001 0.000003 7.047236 -9.325844 57.080728 1.952052 -3.792397 54.459755 0.000000 -0.000001 -0.000004 4.632988 -22.815309 73.017188 1.769363 -3.655294 51.647514 -0.000000 0.000001 -0.000001 0.000001 0.000000 -0.000000 0.000004 -0.000000 -0.000001 0.000004 0.000000 0.000000 0.000004 -0.000000 -0.000001 0.000004 -0.000000 -0.000001 0.000004 -0.000000 -0.000001 0.000004 0.000000 0.000000 0.000004 -0.000000 -0.000001 0.000004 -0.000000 -0.000001 0.000004 -0.000000 -0.000001 0.000004 0.000000 0.000000 -0.000003 -0.000000 -0.000000 -0.000003 -0.000000 -0.000000 -0.000003 -0.000000 -0.000000 
68.788231 57.107170 276.579071 15.058539 7.068069 -4.037385 0.000000 0.000000 -0.000000 -38.693910 5.264686 2.946121 98.761578 -1.693962 0.517934 1.422041 0.017157 -3.477782 0.000001 0.000000 0.000000 0.000000 -0.000000 -0.000000 -73.598417 -0.575896 -5.974065 53.679826 9.729657 6.488987 7.937145 12.716700 -3.003207 0.000000 -0.000002 -0.000000 0.000001 -0.000000 -0.000000 13.972803 0.040756 6.703503 8.249440 -1.162922 3.912526 8.224134 -1.210092 3.958675 6.875745 -2.223311 5.335911 -21.437766 -9.927249 2.096057 -0.000002 0.000000 0.000000 -0.000002 0.000000 0.000000 -0.000002 0.000000 0.000001 -0.000002 0.000000 -0.000000 -0.000002 0.000000 -0.000000 -0.000002 0.000000 -0.000000 -0.000002 0.000000 -0.000000 -0.000002 0.000000 0.000000 -0.000002 0.000000 0.000000 1.508801 -22.315971 -4.205021 -55.379444 -28.063593 -50.490165 -0.000011 -23.644267 -0.000005 18.774935 -16.768413 4.863675 -1.298585 1.261276 -9.231301 6.851400 20.516795 1.675331 0.000000 0.000001 -0.000002 -0.535790 -14.747377 -2.945892 0.274704 1.774552 -17.597588 0.000004 -0.000001 -0.000002 0.065542 2.496890 -1.310637 0.254648 1.710051 -16.938002 -0.000001 0.000001 -0.000001 0.210597 11.938027 -0.420726 0.053869 0.793511 -7.767613 0.000000 0.000002 -0.000001 -5.103763 19.828582 17.111378 0.142981 1.287728 -12.671354 0.000002 -0.000002 0.000001 0.000001 0.000002 -0.000002 -2.031479 16.858913 31.507673 -27.677651 17.939603 7.058531 -0.000004 5.149794 -0.000008 1.875808 7.052165 12.934908 -0.527331 -3.330206 1.776484 6.829685 -18.361925 -2.434642 0.000000 -0.000001 0.000000 0.666462 12.779039 57.635896 2.510363 -4.133802 62.524597 0.000002 0.000002 -0.000001 2.222769 -6.217584 57.065657 1.291243 -3.220509 43.687201 -0.000000 0.000000 -0.000001 7.047240 -9.325840 57.080738 1.952046 -3.792397 54.459759 -0.000000 -0.000001 0.000001 4.632997 -22.815318 73.017215 1.769378 -3.655296 51.647541 -0.000000 0.000002 0.000001 0.000001 0.000000 -0.000001 -0.000000 0.000000 0.000000 -0.000000 0.000000 -0.000000 -0.000000 0.000000 0.000000 -0.000000 0.000000 0.000000 -0.000000 0.000000 0.000000 -0.000000 0.000000 0.000000 -0.000000 0.000000 0.000000 -0.000000 0.000000 0.000000 -0.000000 0.000000 0.000000 -0.000000 0.000000 0.000000 0.000000 0.000000 -0.000000 0.000000 0.000000 -0.000000 0.000000 0.000000 -0.000000 
